<svg width="160" height="80" viewBox="0 0 160 80" fill="none" xmlns="http://www.w3.org/2000/svg">
<g clip-path="url(#clip0)">
<path d="M74.9127 25.8302C74.9388 27.4224 74.4831 28.9864 73.6034 30.3244C72.7236 31.6625 71.4593 32.7145 69.9703 33.3474C68.4813 33.9803 66.8344 34.1657 65.238 33.8802C63.6416 33.5946 62.1674 32.851 61.0017 31.7432C59.836 30.6354 59.0312 29.2133 58.6891 27.6568C58.3471 26.1002 58.483 24.479 59.0799 22.9983C59.6767 21.5175 60.7076 20.2437 62.0422 19.3379C63.3768 18.4321 64.9551 17.935 66.5776 17.9094C67.6549 17.8924 68.7251 18.0838 69.727 18.4726C70.729 18.8615 71.643 19.4402 72.417 20.1757C73.191 20.9112 73.8098 21.7892 74.238 22.7594C74.6662 23.7296 74.8955 24.7731 74.9127 25.8302Z" fill="#FCE4AB"/>
<path d="M29.4263 22.153C29.4586 24.1127 28.8979 26.0379 27.8152 27.6849C26.7325 29.3319 25.1764 30.6269 23.3437 31.4061C21.511 32.1853 19.484 32.4137 17.519 32.0623C15.5541 31.711 13.7394 30.7958 12.3045 29.4324C10.8696 28.069 9.87888 26.3187 9.45771 24.4027C9.03654 22.4868 9.20383 20.4914 9.93836 18.6687C10.6729 16.8461 11.9417 15.2781 13.5843 14.1631C15.227 13.0481 17.1697 12.4362 19.1668 12.4047C21.8446 12.3624 24.4298 13.3657 26.3538 15.1938C28.2778 17.022 29.383 19.5252 29.4263 22.153Z" fill="#FCE4AB"/>
<path d="M64.4564 10.261C64.4887 12.2207 63.928 14.1457 62.8454 15.7927C61.7628 17.4398 60.2067 18.7348 58.3741 19.514C56.5414 20.2932 54.5145 20.5216 52.5496 20.1704C50.5846 19.8191 48.7699 18.904 47.335 17.5407C45.9 16.1774 44.9092 14.4272 44.488 12.5114C44.0667 10.5955 44.2338 8.6001 44.9681 6.77745C45.7025 4.95479 46.9711 3.38676 48.6136 2.27164C50.2561 1.15651 52.1987 0.544374 54.1957 0.512636C56.8736 0.47037 59.459 1.47362 61.3832 3.30173C63.3074 5.12985 64.4128 7.63312 64.4564 10.261Z" fill="#FCE4AB"/>
<path d="M52.9522 13.231C52.993 15.7053 52.2852 18.1359 50.9183 20.2154C49.5514 22.2949 47.5868 23.93 45.2729 24.9138C42.959 25.8976 40.3998 26.186 37.9189 25.7425C35.438 25.299 33.1468 24.1435 31.3352 22.4221C29.5235 20.7008 28.2727 18.4909 27.7409 16.072C27.2091 13.653 27.4202 11.1336 28.3476 8.83245C29.275 6.53126 30.8769 4.55161 32.9508 3.14384C35.0247 1.73608 37.4775 0.963426 39.9989 0.92361C43.3797 0.870371 46.6436 2.13706 49.0727 4.44509C51.5019 6.75311 52.8974 9.91346 52.9522 13.231Z" fill="#FACD7B"/>
<path d="M72.3479 18.1268C72.3845 20.3438 71.7503 22.5216 70.5256 24.3848C69.3008 26.2481 67.5406 27.7131 65.4673 28.5947C63.3941 29.4762 61.1011 29.7346 58.8782 29.3373C56.6553 28.9399 54.6024 27.9046 52.9791 26.3623C51.3558 24.82 50.2351 22.84 49.7585 20.6726C49.282 18.5053 49.4712 16.2479 50.302 14.186C51.1329 12.1241 52.5682 10.3503 54.4264 9.08894C56.2846 7.82754 58.4822 7.1352 60.7414 7.09948C63.7707 7.05158 66.6952 8.18645 68.8718 10.2544C71.0484 12.3224 72.2988 15.1542 72.3479 18.1268Z" fill="#F9B968"/>
<path d="M57.4745 23.3799C57.5027 25.0825 57.0157 26.7552 56.0751 28.1862C55.1345 29.6173 53.7826 30.7425 52.1903 31.4195C50.598 32.0966 48.8369 32.2951 47.1297 31.9899C45.4224 31.6847 43.8457 30.8896 42.599 29.705C41.3523 28.5205 40.4916 26.9998 40.1256 25.3352C39.7597 23.6706 39.905 21.9368 40.5432 20.3533C41.1814 18.7697 42.2838 17.4075 43.711 16.4387C45.1382 15.47 46.8261 14.9384 48.5612 14.9111C50.8875 14.8745 53.1335 15.7461 54.805 17.3342C56.4765 18.9224 57.4367 21.097 57.4745 23.3799Z" fill="#EA8542"/>
<path d="M17.7899 28.4681C17.8105 29.7294 17.4496 30.9683 16.7527 32.0283C16.0558 33.0882 15.0543 33.9216 13.8748 34.4231C12.6953 34.9246 11.3907 35.0716 10.1261 34.8455C8.86145 34.6195 7.69352 34.0305 6.76996 33.1531C5.84639 32.2757 5.20867 31.1493 4.93743 29.9163C4.66618 28.6833 4.77361 27.399 5.24611 26.2259C5.7186 25.0528 6.53493 24.0435 7.59192 23.3257C8.64892 22.6078 9.89909 22.2136 11.1844 22.1929C12.9081 22.1662 14.5721 22.8122 15.8107 23.9889C17.0493 25.1655 17.7612 26.7766 17.7899 28.4681Z" fill="#EA8542"/>
<path d="M45.9376 24.3055C45.9659 26.008 45.479 27.6806 44.5386 29.1116C43.5982 30.5426 42.2465 31.6678 40.6544 32.3449C39.0623 33.0221 37.3013 33.2207 35.5942 32.9157C33.887 32.6107 32.3104 31.8157 31.0637 30.6314C29.8169 29.4471 28.9561 27.9266 28.59 26.2621C28.224 24.5977 28.3691 22.8641 29.0071 21.2806C29.645 19.6971 30.7472 18.3348 32.1741 17.366C33.6011 16.3972 35.2888 15.8654 37.0238 15.8378C39.35 15.8012 41.5957 16.6727 43.2673 18.2606C44.9389 19.8485 45.8994 22.0228 45.9376 24.3055Z" fill="#FCE4AB"/>
<path d="M34.0317 25.7953C34.0579 27.3875 33.6025 28.9517 32.7229 30.29C31.8433 31.6282 30.579 32.6804 29.0899 33.3136C27.6009 33.9468 25.954 34.1324 24.3575 33.847C22.7609 33.5617 21.2864 32.8182 20.1205 31.7105C18.9546 30.6028 18.1496 29.1807 17.8072 27.6241C17.4649 26.0674 17.6007 24.4461 18.1974 22.9652C18.794 21.4843 19.8248 20.2102 21.1594 19.3042C22.4939 18.3982 24.0723 17.9008 25.6949 17.875C26.7723 17.8578 27.8426 18.049 28.8447 18.4377C29.8468 18.8264 30.761 19.405 31.5352 20.1405C32.3093 20.876 32.9283 21.754 33.3566 22.7242C33.785 23.6945 34.0144 24.738 34.0317 25.7953Z" fill="#F9B968"/>
<path d="M8.05768 34.3512L16.8749 74.6706L64.4853 73.9169L71.9737 33.3395L8.05768 34.3512Z" fill="#F39014"/>
<path d="M20.7663 34.1498L26.3053 74.5208L35.825 74.3699L33.5399 33.9473L20.7663 34.1498Z" fill="#E5EFF3"/>
<path d="M8.05768 34.3511L16.8749 74.6706L26.3081 74.5208L20.7691 34.1498L8.05768 34.3511Z" fill="#ED4D55"/>
<path d="M71.9737 33.3395L59.078 33.5431L54.8679 74.0672L64.4859 73.9152L71.9737 33.3395Z" fill="#ED4D55"/>
<path d="M33.5399 33.9474L35.8295 74.37L45.3492 74.2192L46.3101 33.7449L33.5399 33.9474Z" fill="#ED4D55"/>
<path d="M46.3072 33.7449L45.3464 74.2191L54.8667 74.0688L59.0752 33.5436L46.3072 33.7449Z" fill="#E5EFF3"/>
<path opacity="0.4" d="M11.9112 51.9709C23.3662 46.4311 43.3428 39.4732 70.7664 39.8798L71.972 33.3417L8.05768 34.3533L11.9112 51.9709Z" fill="#C52C58"/>
<path d="M75.3564 32.7737C75.3732 33.7923 74.977 34.7756 74.2549 35.5074C73.5329 36.2393 72.5442 36.6597 71.5062 36.6762L8.63418 37.6712C7.59636 37.6877 6.59436 37.2989 5.84859 36.5905C5.10282 35.8821 4.67435 34.912 4.6574 33.8936L4.64101 32.8691C4.62424 31.8507 5.02038 30.8675 5.74231 30.1356C6.46423 29.4038 7.45279 28.9833 8.4906 28.9667L71.3627 27.9722C72.4005 27.9558 73.4025 28.3445 74.1482 29.0529C74.894 29.7614 75.3225 30.7315 75.3395 31.7499L75.3564 32.7737Z" fill="#ED4D55"/>
<path opacity="0.4" d="M67.0762 59.8745C51.571 68.787 22.6207 70.0316 15.8965 70.2008L16.8749 74.6706L64.4853 73.9163L67.0762 59.8745Z" fill="#C52C58"/>
<path d="M66.9067 74.391C66.9423 76.5114 65.6706 78.2524 64.0682 78.2768L17.435 79.0156C15.8332 79.0406 14.505 77.3423 14.4705 75.2213L14.4535 74.1969C14.4179 72.0765 15.6902 70.3361 17.2925 70.3111L63.9252 69.5746C65.5281 69.5491 66.8552 71.2474 66.8903 73.3688L66.9067 74.391Z" fill="#ED4D55"/>
</g>
<path d="M94.688 50.1518C93.1725 53.9598 86.9554 53.0272 86.9554 49.7244V40.2433C86.9554 36.8238 93.0948 36.0467 94.96 39.4661L100.633 37.1735C98.4182 32.2776 94.3383 30.8398 90.9577 30.8398C85.44 30.8398 80 34.0261 80 40.2433V49.7244C80 55.9804 85.44 59.1278 90.8411 59.1278C94.2994 59.1278 98.4571 57.4181 100.75 52.9495L94.688 50.1518Z" fill="#ED4D55"/>
<path d="M110.232 31.2284H103.277V58.7392H110.232V31.2284Z" fill="#ED4D55"/>
<path d="M114.585 58.7392H121.54V47.7427L120.646 42.4192L120.841 42.3804L123.25 47.8981L129.467 58.7392H136.5V31.2284H129.583V43.7015C129.622 43.7015 130.322 48.4421 130.361 48.4421L130.166 48.481L127.835 42.9632L121.19 31.2284H114.585V58.7392Z" fill="#ED4D55"/>
<path d="M147.877 37.7564H160V31.2284H140.843V58.7392H160V52.1724H147.877V48.0535H159.029V42.0307H147.877V37.7564Z" fill="#ED4D55"/>
<path d="M80.6494 72.9204H83.8998V69.1615H85.8065C88.9116 69.1615 90.4914 66.8917 90.4914 64.6037C90.4914 62.3339 88.9298 60.0641 85.7883 60.0641H80.6494V72.9204ZM83.8998 66.2743V63.0966H85.7883C87.7494 63.0784 87.7494 66.2925 85.7883 66.2743H83.8998Z" fill="#F2F2F2"/>
<path d="M91.5657 68.6894C91.5657 71.6311 94.2351 73.102 96.9044 73.102C99.5737 73.102 102.225 71.6311 102.225 68.6894V64.295C102.225 61.3533 99.5555 59.8825 96.8862 59.8825C94.2169 59.8825 91.5657 61.3352 91.5657 64.295V68.6894ZM94.8161 64.295C94.8161 63.3508 95.833 62.8423 96.8499 62.8423C97.9031 62.8423 98.9745 63.2963 98.9745 64.295V68.6894C98.9745 69.6155 97.9394 70.0876 96.9044 70.0876C95.8693 70.0876 94.8161 69.6337 94.8161 68.6894V64.295Z" fill="#F2F2F2"/>
<path d="M103.951 72.9204H107.201V69.1615H109.108C112.213 69.1615 113.793 66.8917 113.793 64.6037C113.793 62.3339 112.231 60.0641 109.09 60.0641H103.951V72.9204ZM107.201 66.2743V63.0966H109.09C111.051 63.0784 111.051 66.2925 109.09 66.2743H107.201Z" fill="#F2F2F2"/>
<path d="M121.731 68.9073C121.023 70.6869 118.117 70.2511 118.117 68.7076V64.2769C118.117 62.6789 120.986 62.3157 121.858 63.9137L124.509 62.8423C123.474 60.5543 121.568 59.8825 119.988 59.8825C117.409 59.8825 114.867 61.3715 114.867 64.2769V68.7076C114.867 71.6311 117.409 73.102 119.933 73.102C121.549 73.102 123.492 72.303 124.564 70.2147L121.731 68.9073Z" fill="#F2F2F2"/>
<path d="M125.436 68.6894C125.436 71.6311 128.105 73.102 130.774 73.102C133.444 73.102 136.095 71.6311 136.095 68.6894V64.295C136.095 61.3533 133.426 59.8825 130.756 59.8825C128.087 59.8825 125.436 61.3352 125.436 64.295V68.6894ZM128.686 64.295C128.686 63.3508 129.703 62.8423 130.72 62.8423C131.773 62.8423 132.845 63.2963 132.845 64.295V68.6894C132.845 69.6155 131.81 70.0876 130.774 70.0876C129.739 70.0876 128.686 69.6337 128.686 68.6894V64.295Z" fill="#F2F2F2"/>
<path d="M144.667 72.9204H148.716L145.211 68.5078C146.773 68.0175 147.735 66.6738 147.735 64.295C147.663 61.2807 145.611 60.0641 142.96 60.0641H137.821V72.9204H141.107V68.8347H141.689L144.667 72.9204ZM141.107 66.0383V63.0966H143.014C145.066 63.0966 145.066 66.0383 143.014 66.0383H141.107Z" fill="#F2F2F2"/>
<path d="M149.56 72.9204H152.81V67.7815L152.393 65.2938L152.484 65.2756L153.609 67.8541L156.515 72.9204H159.802V60.0641H156.569V65.893C156.587 65.893 156.914 68.1083 156.932 68.1083L156.842 68.1265L155.752 65.548L152.647 60.0641H149.56V72.9204Z" fill="#F2F2F2"/>
<defs>
<clipPath id="clip0">
<rect width="80" height="78.5047" fill="white" transform="translate(0 0.511536)"/>
</clipPath>
</defs>
</svg>
